<mxfile host="65bd71144e">
    <diagram id="HWwB7oZY_qOHe1RoB8Bc" name="Page-1">
        <mxGraphModel dx="705" dy="1618" grid="1" gridSize="10" guides="1" tooltips="1" connect="1" arrows="1" fold="1" page="1" pageScale="1" pageWidth="827" pageHeight="1169" math="0" shadow="0">
            <root>
                <mxCell id="0"/>
                <mxCell id="1" parent="0"/>
                <mxCell id="72" value="" style="rounded=0;whiteSpace=wrap;html=1;" parent="1" vertex="1">
                    <mxGeometry x="120" y="30" width="730" height="870" as="geometry"/>
                </mxCell>
                <mxCell id="2" value="" style="rounded=0;whiteSpace=wrap;html=1;" parent="1" vertex="1">
                    <mxGeometry x="300" y="120" width="370" height="40" as="geometry"/>
                </mxCell>
                <mxCell id="3" value="Patients" style="text;html=1;align=center;verticalAlign=middle;resizable=0;points=[];autosize=1;fontSize=20;" parent="1" vertex="1">
                    <mxGeometry x="300" y="80" width="100" height="40" as="geometry"/>
                </mxCell>
                <mxCell id="4" value="Drugs" style="text;html=1;align=center;verticalAlign=middle;resizable=0;points=[];autosize=1;fontSize=20;" parent="1" vertex="1">
                    <mxGeometry x="300" y="170" width="80" height="40" as="geometry"/>
                </mxCell>
                <mxCell id="5" value="Nurses" style="text;html=1;align=center;verticalAlign=middle;resizable=0;points=[];autosize=1;fontSize=20;" parent="1" vertex="1">
                    <mxGeometry x="300" y="350" width="90" height="40" as="geometry"/>
                </mxCell>
                <mxCell id="6" value="Wards" style="text;html=1;align=center;verticalAlign=middle;resizable=0;points=[];autosize=1;fontSize=20;" parent="1" vertex="1">
                    <mxGeometry x="300" y="440" width="80" height="40" as="geometry"/>
                </mxCell>
                <mxCell id="7" value="" style="rounded=0;whiteSpace=wrap;html=1;" parent="1" vertex="1">
                    <mxGeometry x="300" y="210" width="130" height="40" as="geometry"/>
                </mxCell>
                <mxCell id="8" value="" style="rounded=0;whiteSpace=wrap;html=1;" parent="1" vertex="1">
                    <mxGeometry x="300" y="390" width="290" height="40" as="geometry"/>
                </mxCell>
                <mxCell id="9" value="" style="rounded=0;whiteSpace=wrap;html=1;" parent="1" vertex="1">
                    <mxGeometry x="300" y="480" width="230" height="40" as="geometry"/>
                </mxCell>
                <mxCell id="10" value="&lt;u style=&quot;border-color: rgb(0, 0, 0); font-family: Helvetica; font-size: 18px; font-style: normal; font-variant-ligatures: normal; font-variant-caps: normal; font-weight: 400; letter-spacing: normal; orphans: 2; text-align: center; text-indent: 0px; text-transform: none; widows: 2; word-spacing: 0px; -webkit-text-stroke-width: 0px;&quot;&gt;ID&lt;/u&gt;&lt;span style=&quot;font-family: Helvetica; font-size: 18px; font-style: normal; font-variant-ligatures: normal; font-variant-caps: normal; font-weight: 400; letter-spacing: normal; orphans: 2; text-align: center; text-indent: 0px; text-transform: none; widows: 2; word-spacing: 0px; -webkit-text-stroke-width: 0px; text-decoration-thickness: initial; text-decoration-style: initial; text-decoration-color: initial; float: none; display: inline !important;&quot;&gt;&amp;nbsp; &amp;nbsp; Name&amp;nbsp; &amp;nbsp;DOB&amp;nbsp; &amp;nbsp;Ward_ID&amp;nbsp; &amp;nbsp;consultant_ID&lt;/span&gt;" style="text;whiteSpace=wrap;html=1;fontSize=18;labelBackgroundColor=none;fontColor=default;" parent="1" vertex="1">
                    <mxGeometry x="310" y="120" width="420" height="40" as="geometry"/>
                </mxCell>
                <mxCell id="11" value="" style="endArrow=none;html=1;fontSize=18;" parent="1" edge="1">
                    <mxGeometry width="50" height="50" relative="1" as="geometry">
                        <mxPoint x="340" y="160" as="sourcePoint"/>
                        <mxPoint x="339.5" y="120" as="targetPoint"/>
                    </mxGeometry>
                </mxCell>
                <mxCell id="13" value="" style="endArrow=none;html=1;fontSize=18;" parent="1" edge="1">
                    <mxGeometry width="50" height="50" relative="1" as="geometry">
                        <mxPoint x="405.5" y="160" as="sourcePoint"/>
                        <mxPoint x="405" y="120" as="targetPoint"/>
                    </mxGeometry>
                </mxCell>
                <mxCell id="14" value="&lt;div style=&quot;text-align: center;&quot;&gt;&lt;span style=&quot;background-color: initial;&quot;&gt;&lt;u&gt;Code&lt;/u&gt;&amp;nbsp; &amp;nbsp;Dosage&lt;/span&gt;&lt;/div&gt;" style="text;whiteSpace=wrap;html=1;fontSize=18;" parent="1" vertex="1">
                    <mxGeometry x="300" y="210" width="130" height="40" as="geometry"/>
                </mxCell>
                <mxCell id="15" value="" style="endArrow=none;html=1;fontSize=18;" parent="1" edge="1">
                    <mxGeometry width="50" height="50" relative="1" as="geometry">
                        <mxPoint x="353" y="250" as="sourcePoint"/>
                        <mxPoint x="352.5" y="210" as="targetPoint"/>
                    </mxGeometry>
                </mxCell>
                <mxCell id="20" value="Drug_Brand" style="text;html=1;align=center;verticalAlign=middle;resizable=0;points=[];autosize=1;fontSize=20;" parent="1" vertex="1">
                    <mxGeometry x="300" y="260" width="130" height="40" as="geometry"/>
                </mxCell>
                <mxCell id="21" value="" style="rounded=0;whiteSpace=wrap;html=1;" parent="1" vertex="1">
                    <mxGeometry x="300" y="300" width="160" height="40" as="geometry"/>
                </mxCell>
                <mxCell id="22" value="&lt;div style=&quot;text-align: center;&quot;&gt;&lt;span style=&quot;background-color: initial;&quot;&gt;Drug_Code&amp;nbsp; &amp;nbsp;Brand&lt;/span&gt;&lt;/div&gt;" style="text;whiteSpace=wrap;html=1;fontSize=18;" parent="1" vertex="1">
                    <mxGeometry x="300" y="300" width="160" height="40" as="geometry"/>
                </mxCell>
                <mxCell id="23" value="" style="endArrow=none;html=1;dashed=1;fontSize=18;" parent="1" edge="1">
                    <mxGeometry width="50" height="50" relative="1" as="geometry">
                        <mxPoint x="305" y="330" as="sourcePoint"/>
                        <mxPoint x="385" y="330" as="targetPoint"/>
                    </mxGeometry>
                </mxCell>
                <mxCell id="25" value="" style="endArrow=none;html=1;fontSize=18;" parent="1" edge="1">
                    <mxGeometry width="50" height="50" relative="1" as="geometry">
                        <mxPoint x="400.5" y="340" as="sourcePoint"/>
                        <mxPoint x="400" y="300" as="targetPoint"/>
                    </mxGeometry>
                </mxCell>
                <mxCell id="27" value="" style="endArrow=classic;html=1;fontSize=18;exitX=0;exitY=0.75;exitDx=0;exitDy=0;endFill=1;entryX=0;entryY=0.75;entryDx=0;entryDy=0;" parent="1" source="22" target="14" edge="1">
                    <mxGeometry width="50" height="50" relative="1" as="geometry">
                        <mxPoint x="270.5" y="320" as="sourcePoint"/>
                        <mxPoint x="260" y="230" as="targetPoint"/>
                        <Array as="points">
                            <mxPoint x="260" y="290"/>
                        </Array>
                    </mxGeometry>
                </mxCell>
                <mxCell id="28" value="" style="endArrow=none;html=1;fontSize=18;" parent="1" edge="1">
                    <mxGeometry width="50" height="50" relative="1" as="geometry">
                        <mxPoint x="305" y="335" as="sourcePoint"/>
                        <mxPoint x="455" y="335" as="targetPoint"/>
                    </mxGeometry>
                </mxCell>
                <mxCell id="29" value="&lt;div style=&quot;text-align: center;&quot;&gt;&lt;span style=&quot;background-color: initial;&quot;&gt;&lt;u&gt;Number&lt;/u&gt;&amp;nbsp; &amp;nbsp;Name&amp;nbsp; &amp;nbsp;address&amp;nbsp; &amp;nbsp;ward_id&lt;/span&gt;&lt;/div&gt;" style="text;whiteSpace=wrap;html=1;fontSize=18;" parent="1" vertex="1">
                    <mxGeometry x="300" y="390" width="290" height="40" as="geometry"/>
                </mxCell>
                <mxCell id="30" value="" style="endArrow=none;html=1;fontSize=18;" parent="1" edge="1">
                    <mxGeometry width="50" height="50" relative="1" as="geometry">
                        <mxPoint x="374.5" y="430" as="sourcePoint"/>
                        <mxPoint x="374" y="390" as="targetPoint"/>
                    </mxGeometry>
                </mxCell>
                <mxCell id="31" value="" style="endArrow=none;html=1;fontSize=18;" parent="1" edge="1">
                    <mxGeometry width="50" height="50" relative="1" as="geometry">
                        <mxPoint x="435.5" y="430" as="sourcePoint"/>
                        <mxPoint x="435" y="390" as="targetPoint"/>
                    </mxGeometry>
                </mxCell>
                <mxCell id="32" value="&lt;div style=&quot;text-align: center;&quot;&gt;&lt;span style=&quot;background-color: initial;&quot;&gt;&lt;u&gt;ID&lt;/u&gt;&amp;nbsp; &amp;nbsp; Name&amp;nbsp; &amp;nbsp;supervisor_id&lt;/span&gt;&lt;/div&gt;" style="text;whiteSpace=wrap;html=1;fontSize=18;" parent="1" vertex="1">
                    <mxGeometry x="310" y="480" width="240" height="40" as="geometry"/>
                </mxCell>
                <mxCell id="33" value="" style="endArrow=none;html=1;fontSize=18;" parent="1" edge="1">
                    <mxGeometry width="50" height="50" relative="1" as="geometry">
                        <mxPoint x="340.5" y="520" as="sourcePoint"/>
                        <mxPoint x="340" y="480" as="targetPoint"/>
                    </mxGeometry>
                </mxCell>
                <mxCell id="34" value="" style="endArrow=none;html=1;dashed=1;fontSize=18;strokeWidth=2;" parent="1" edge="1">
                    <mxGeometry width="50" height="50" relative="1" as="geometry">
                        <mxPoint x="410" y="510" as="sourcePoint"/>
                        <mxPoint x="520" y="510" as="targetPoint"/>
                    </mxGeometry>
                </mxCell>
                <mxCell id="35" value="" style="endArrow=none;html=1;fontSize=18;" parent="1" edge="1">
                    <mxGeometry width="50" height="50" relative="1" as="geometry">
                        <mxPoint x="400.5" y="520" as="sourcePoint"/>
                        <mxPoint x="400" y="480" as="targetPoint"/>
                    </mxGeometry>
                </mxCell>
                <mxCell id="37" value="" style="endArrow=classic;html=1;fontSize=18;exitX=0.855;exitY=-0.005;exitDx=0;exitDy=0;endFill=1;exitPerimeter=0;entryX=0.25;entryY=1;entryDx=0;entryDy=0;" parent="1" source="32" target="29" edge="1">
                    <mxGeometry width="50" height="50" relative="1" as="geometry">
                        <mxPoint x="560" y="420" as="sourcePoint"/>
                        <mxPoint x="560" y="330" as="targetPoint"/>
                        <Array as="points"/>
                    </mxGeometry>
                </mxCell>
                <mxCell id="38" value="" style="endArrow=none;html=1;fontSize=18;" parent="1" edge="1">
                    <mxGeometry width="50" height="50" relative="1" as="geometry">
                        <mxPoint x="460.5" y="160" as="sourcePoint"/>
                        <mxPoint x="460" y="120" as="targetPoint"/>
                    </mxGeometry>
                </mxCell>
                <mxCell id="39" value="" style="endArrow=none;html=1;dashed=1;fontSize=18;strokeWidth=2;" parent="1" edge="1">
                    <mxGeometry width="50" height="50" relative="1" as="geometry">
                        <mxPoint x="470" y="150" as="sourcePoint"/>
                        <mxPoint x="540" y="150" as="targetPoint"/>
                    </mxGeometry>
                </mxCell>
                <mxCell id="40" value="" style="endArrow=classic;html=1;fontSize=18;endFill=1;exitX=0.038;exitY=1.035;exitDx=0;exitDy=0;exitPerimeter=0;" parent="1" source="32" edge="1">
                    <mxGeometry width="50" height="50" relative="1" as="geometry">
                        <mxPoint x="320" y="530" as="sourcePoint"/>
                        <mxPoint x="515" y="170" as="targetPoint"/>
                        <Array as="points">
                            <mxPoint x="330" y="560"/>
                            <mxPoint x="560" y="560"/>
                            <mxPoint x="610" y="530"/>
                            <mxPoint x="610" y="450"/>
                            <mxPoint x="600" y="290"/>
                        </Array>
                    </mxGeometry>
                </mxCell>
                <mxCell id="42" value="Consultant" style="text;html=1;align=center;verticalAlign=middle;resizable=0;points=[];autosize=1;fontSize=20;" parent="1" vertex="1">
                    <mxGeometry x="300" y="550" width="120" height="40" as="geometry"/>
                </mxCell>
                <mxCell id="43" value="" style="rounded=0;whiteSpace=wrap;html=1;" parent="1" vertex="1">
                    <mxGeometry x="300" y="590" width="100" height="40" as="geometry"/>
                </mxCell>
                <mxCell id="44" value="&lt;div style=&quot;text-align: center;&quot;&gt;&lt;span style=&quot;background-color: initial;&quot;&gt;&lt;u&gt;ID&lt;/u&gt;&amp;nbsp; &amp;nbsp;Name&lt;/span&gt;&lt;/div&gt;" style="text;whiteSpace=wrap;html=1;fontSize=18;" parent="1" vertex="1">
                    <mxGeometry x="305" y="590" width="120" height="40" as="geometry"/>
                </mxCell>
                <mxCell id="46" value="" style="endArrow=none;html=1;fontSize=18;" parent="1" edge="1">
                    <mxGeometry width="50" height="50" relative="1" as="geometry">
                        <mxPoint x="330.5" y="630" as="sourcePoint"/>
                        <mxPoint x="330" y="590" as="targetPoint"/>
                    </mxGeometry>
                </mxCell>
                <mxCell id="47" value="" style="endArrow=none;html=1;dashed=1;fontSize=18;strokeWidth=2;" parent="1" edge="1">
                    <mxGeometry width="50" height="50" relative="1" as="geometry">
                        <mxPoint x="560" y="150" as="sourcePoint"/>
                        <mxPoint x="660" y="150" as="targetPoint"/>
                    </mxGeometry>
                </mxCell>
                <mxCell id="48" value="" style="endArrow=none;html=1;fontSize=18;" parent="1" edge="1">
                    <mxGeometry width="50" height="50" relative="1" as="geometry">
                        <mxPoint x="550.5" y="160" as="sourcePoint"/>
                        <mxPoint x="550" y="120" as="targetPoint"/>
                    </mxGeometry>
                </mxCell>
                <mxCell id="49" value="" style="endArrow=classic;html=1;fontSize=18;endFill=1;exitX=0.038;exitY=1.035;exitDx=0;exitDy=0;exitPerimeter=0;" parent="1" edge="1">
                    <mxGeometry width="50" height="50" relative="1" as="geometry">
                        <mxPoint x="320" y="631.4000000000001" as="sourcePoint"/>
                        <mxPoint x="620" y="170" as="targetPoint"/>
                        <Array as="points">
                            <mxPoint x="330.88" y="650"/>
                            <mxPoint x="540.88" y="650"/>
                            <mxPoint x="630" y="620"/>
                        </Array>
                    </mxGeometry>
                </mxCell>
                <mxCell id="51" value="" style="endArrow=none;html=1;fontSize=18;" parent="1" edge="1">
                    <mxGeometry width="50" height="50" relative="1" as="geometry">
                        <mxPoint x="515" y="430" as="sourcePoint"/>
                        <mxPoint x="514.5" y="390" as="targetPoint"/>
                    </mxGeometry>
                </mxCell>
                <mxCell id="52" value="" style="endArrow=none;html=1;dashed=1;fontSize=18;strokeWidth=2;" parent="1" edge="1">
                    <mxGeometry width="50" height="50" relative="1" as="geometry">
                        <mxPoint x="520" y="420" as="sourcePoint"/>
                        <mxPoint x="590" y="420.5" as="targetPoint"/>
                    </mxGeometry>
                </mxCell>
                <mxCell id="53" value="" style="endArrow=classic;html=1;fontSize=18;endFill=1;exitX=0.085;exitY=0.995;exitDx=0;exitDy=0;exitPerimeter=0;entryX=0.862;entryY=1;entryDx=0;entryDy=0;entryPerimeter=0;" parent="1" source="32" target="29" edge="1">
                    <mxGeometry width="50" height="50" relative="1" as="geometry">
                        <mxPoint x="330" y="530" as="sourcePoint"/>
                        <mxPoint x="550" y="450" as="targetPoint"/>
                        <Array as="points">
                            <mxPoint x="340" y="550"/>
                            <mxPoint x="470" y="540"/>
                            <mxPoint x="540" y="540"/>
                            <mxPoint x="560" y="520"/>
                            <mxPoint x="560" y="490"/>
                        </Array>
                    </mxGeometry>
                </mxCell>
                <mxCell id="54" value="Taken Drug" style="text;html=1;align=center;verticalAlign=middle;resizable=0;points=[];autosize=1;fontSize=20;" parent="1" vertex="1">
                    <mxGeometry x="300" y="660" width="130" height="40" as="geometry"/>
                </mxCell>
                <mxCell id="55" value="" style="rounded=0;whiteSpace=wrap;html=1;" parent="1" vertex="1">
                    <mxGeometry x="300" y="700" width="510" height="40" as="geometry"/>
                </mxCell>
                <mxCell id="56" value="&lt;div style=&quot;text-align: center;&quot;&gt;Dosage&amp;nbsp; &amp;nbsp;Date&amp;nbsp; &amp;nbsp;Time&amp;nbsp; &amp;nbsp; DrugID&amp;nbsp; &amp;nbsp;PatientID&amp;nbsp; &amp;nbsp;NurseID&amp;nbsp; &lt;u&gt;ExtraID&lt;/u&gt;&lt;/div&gt;" style="text;whiteSpace=wrap;html=1;fontSize=18;" parent="1" vertex="1">
                    <mxGeometry x="305" y="700" width="505" height="40" as="geometry"/>
                </mxCell>
                <mxCell id="57" value="" style="endArrow=none;html=1;fontSize=18;" parent="1" edge="1">
                    <mxGeometry width="50" height="50" relative="1" as="geometry">
                        <mxPoint x="376.5" y="740" as="sourcePoint"/>
                        <mxPoint x="376" y="700" as="targetPoint"/>
                    </mxGeometry>
                </mxCell>
                <mxCell id="58" value="" style="endArrow=none;html=1;fontSize=18;" parent="1" edge="1">
                    <mxGeometry width="50" height="50" relative="1" as="geometry">
                        <mxPoint x="430.5" y="740" as="sourcePoint"/>
                        <mxPoint x="430" y="700" as="targetPoint"/>
                    </mxGeometry>
                </mxCell>
                <mxCell id="59" value="" style="endArrow=none;html=1;fontSize=18;" parent="1" edge="1">
                    <mxGeometry width="50" height="50" relative="1" as="geometry">
                        <mxPoint x="487.5" y="742" as="sourcePoint"/>
                        <mxPoint x="487" y="702" as="targetPoint"/>
                    </mxGeometry>
                </mxCell>
                <mxCell id="60" value="" style="endArrow=none;html=1;fontSize=18;" parent="1" edge="1">
                    <mxGeometry width="50" height="50" relative="1" as="geometry">
                        <mxPoint x="557.5" y="739" as="sourcePoint"/>
                        <mxPoint x="557" y="699" as="targetPoint"/>
                    </mxGeometry>
                </mxCell>
                <mxCell id="61" value="" style="endArrow=none;html=1;fontSize=18;" parent="1" edge="1">
                    <mxGeometry width="50" height="50" relative="1" as="geometry">
                        <mxPoint x="650.5" y="741" as="sourcePoint"/>
                        <mxPoint x="650" y="701" as="targetPoint"/>
                    </mxGeometry>
                </mxCell>
                <mxCell id="62" value="" style="endArrow=none;html=1;dashed=1;fontSize=18;strokeWidth=2;" parent="1" edge="1">
                    <mxGeometry width="50" height="50" relative="1" as="geometry">
                        <mxPoint x="500" y="732" as="sourcePoint"/>
                        <mxPoint x="550" y="732" as="targetPoint"/>
                    </mxGeometry>
                </mxCell>
                <mxCell id="63" value="" style="endArrow=none;html=1;dashed=1;fontSize=18;strokeWidth=2;" parent="1" edge="1">
                    <mxGeometry width="50" height="50" relative="1" as="geometry">
                        <mxPoint x="570" y="730" as="sourcePoint"/>
                        <mxPoint x="640" y="730" as="targetPoint"/>
                    </mxGeometry>
                </mxCell>
                <mxCell id="64" value="" style="endArrow=none;html=1;dashed=1;fontSize=18;strokeWidth=2;" parent="1" edge="1">
                    <mxGeometry width="50" height="50" relative="1" as="geometry">
                        <mxPoint x="660" y="730" as="sourcePoint"/>
                        <mxPoint x="720" y="730" as="targetPoint"/>
                    </mxGeometry>
                </mxCell>
                <mxCell id="66" value="" style="endArrow=none;html=1;fontSize=18;" parent="1" edge="1">
                    <mxGeometry width="50" height="50" relative="1" as="geometry">
                        <mxPoint x="730.5" y="740" as="sourcePoint"/>
                        <mxPoint x="730" y="700" as="targetPoint"/>
                    </mxGeometry>
                </mxCell>
                <mxCell id="69" value="" style="edgeStyle=none;orthogonalLoop=1;jettySize=auto;html=1;strokeWidth=1;fontSize=18;endArrow=classic;endFill=1;entryX=0;entryY=0.5;entryDx=0;entryDy=0;exitX=0.603;exitY=0.995;exitDx=0;exitDy=0;exitPerimeter=0;" parent="1" source="56" target="2" edge="1">
                    <mxGeometry width="100" relative="1" as="geometry">
                        <mxPoint x="600" y="680" as="sourcePoint"/>
                        <mxPoint x="540" y="330" as="targetPoint"/>
                        <Array as="points">
                            <mxPoint x="610" y="760"/>
                            <mxPoint x="440" y="760"/>
                            <mxPoint x="230" y="760"/>
                            <mxPoint x="240" y="140"/>
                        </Array>
                    </mxGeometry>
                </mxCell>
                <mxCell id="70" value="" style="edgeStyle=none;orthogonalLoop=1;jettySize=auto;html=1;strokeWidth=1;fontSize=18;endArrow=classic;endFill=1;entryX=0.042;entryY=0.995;entryDx=0;entryDy=0;entryPerimeter=0;exitX=0.434;exitY=1.035;exitDx=0;exitDy=0;exitPerimeter=0;" parent="1" source="56" edge="1">
                    <mxGeometry width="100" relative="1" as="geometry">
                        <mxPoint x="579.515" y="810" as="sourcePoint"/>
                        <mxPoint x="297.22" y="229.99999999999994" as="targetPoint"/>
                        <Array as="points">
                            <mxPoint x="520" y="780"/>
                            <mxPoint x="210" y="780"/>
                            <mxPoint x="210" y="230.2"/>
                        </Array>
                    </mxGeometry>
                </mxCell>
                <mxCell id="71" value="" style="edgeStyle=none;orthogonalLoop=1;jettySize=auto;html=1;strokeWidth=1;fontSize=18;endArrow=classic;endFill=1;entryX=0;entryY=0.5;entryDx=0;entryDy=0;exitX=0.75;exitY=1;exitDx=0;exitDy=0;" parent="1" source="56" edge="1">
                    <mxGeometry width="100" relative="1" as="geometry">
                        <mxPoint x="660" y="750" as="sourcePoint"/>
                        <mxPoint x="300" y="410" as="targetPoint"/>
                        <Array as="points">
                            <mxPoint x="684" y="810"/>
                            <mxPoint x="410" y="810"/>
                            <mxPoint x="190" y="810"/>
                            <mxPoint x="190" y="410"/>
                        </Array>
                    </mxGeometry>
                </mxCell>
            </root>
        </mxGraphModel>
    </diagram>
</mxfile>